<svg width="3764" height="2024" xmlns="http://www.w3.org/2000/svg" xmlns:xlink="http://www.w3.org/1999/xlink" overflow="hidden"><defs><clipPath id="clip0"><rect x="44" y="1119" width="3764" height="2024"/></clipPath></defs><g clip-path="url(#clip0)" transform="translate(-44 -1119)"><rect x="1229" y="1308" width="1168" height="1774" fill="#A5FFA9" fill-opacity="0.2"/><path d="M1242.5 2197.5 2371.33 2197.5" stroke="#C6CDD4" stroke-width="3.4375" stroke-linejoin="round" stroke-miterlimit="10" fill="none" fill-rule="evenodd"/><text font-family="5,5_MSFontService,sans-serif" font-weight="400" font-size="147" transform="matrix(1 0 0 1 2450.85 1608)">Real<tspan font-size="147" x="311.667" y="0">-</tspan><tspan font-size="147" x="372.396" y="0">world, Easy</tspan><tspan font-size="147" x="0" y="176">(1.5 </tspan><tspan font-size="147" x="287.604" y="176">–</tspan><tspan font-size="147" x="394.167" y="176">3m)</tspan></text><rect x="1570" y="1694" width="165" height="502" fill="#F8B308"/><rect x="2072" y="1499" width="165" height="697" fill="#1877F2"/><text font-family="5,5_MSFontService,sans-serif" font-weight="400" font-size="110" transform="matrix(1 0 0 1 2032.75 1474)">53.7<tspan font-size="110" x="-498.456" y="199">37.7</tspan></text><path d="M1242.5 3083.5 2409.83 3083.5" stroke="#C6CDD4" stroke-width="3.4375" stroke-linejoin="round" stroke-miterlimit="10" fill="none" fill-rule="evenodd"/><rect x="1567" y="3067" width="165" height="17.0002" fill="#F8B308"/><rect x="2072" y="2827" width="165" height="257" fill="#1877F2"/><text font-family="5,5_MSFontService,sans-serif" font-weight="400" font-size="147" transform="matrix(1 0 0 1 2450.85 2557)">Real<tspan font-size="147" x="311.667" y="0">-</tspan><tspan font-size="147" x="372.396" y="0">world, Hard</tspan><tspan font-size="147" x="0" y="176">(5 </tspan><tspan font-size="147" x="181.042" y="176">–</tspan><tspan font-size="147" x="287.604" y="176">10m)</tspan><tspan font-size="110" x="-894.197" y="491">3.3</tspan><tspan font-size="110" x="-412.204" y="243">19.3</tspan><tspan font-size="110" x="-740.523" y="-1301">NRNS</tspan></text><rect x="123" y="1856" width="269" height="270" fill="#F8B308"/><text font-family="5,5_MSFontService,sans-serif" font-weight="400" font-size="128" transform="matrix(1 0 0 1 422.873 2035)">w/o SLING</text><rect x="122" y="2205" width="269" height="270" fill="#1877F2"/><text font-family="5,5_MSFontService,sans-serif" font-weight="400" font-size="128" transform="matrix(1 0 0 1 422.66 2371)">w/ SLING<tspan font-size="183" x="-268.549" y="-619">SPL</tspan></text></g></svg>