<?xml version="1.0" encoding="UTF-8" standalone="no"?>
<svg
   xmlns:dc="http://purl.org/dc/elements/1.1/"
   xmlns:cc="http://creativecommons.org/ns#"
   xmlns:rdf="http://www.w3.org/1999/02/22-rdf-syntax-ns#"
   xmlns:svg="http://www.w3.org/2000/svg"
   xmlns="http://www.w3.org/2000/svg"
   xmlns:sodipodi="http://sodipodi.sourceforge.net/DTD/sodipodi-0.dtd"
   xmlns:inkscape="http://www.inkscape.org/namespaces/inkscape"
   width="3434.7693"
   height="935.50586"
   overflow="hidden"
   version="1.1"
   id="svg213"
   sodipodi:docname="lmn1.svg"
   style="overflow:hidden"
   inkscape:version="0.92.5 (2060ec1f9f, 2020-04-08)">
  <metadata
     id="metadata217">
    <rdf:RDF>
      <cc:Work
         rdf:about="">
        <dc:format>image/svg+xml</dc:format>
        <dc:type
           rdf:resource="http://purl.org/dc/dcmitype/StillImage" />
        <dc:title></dc:title>
      </cc:Work>
    </rdf:RDF>
  </metadata>
  <sodipodi:namedview
     pagecolor="#ffffff"
     bordercolor="#666666"
     borderopacity="1"
     objecttolerance="10"
     gridtolerance="10"
     guidetolerance="10"
     inkscape:pageopacity="0"
     inkscape:pageshadow="2"
     inkscape:window-width="1918"
     inkscape:window-height="1052"
     id="namedview215"
     showgrid="false"
     fit-margin-top="0"
     fit-margin-left="0"
     fit-margin-right="0"
     fit-margin-bottom="0"
     inkscape:zoom="0.27756341"
     inkscape:cx="2222.4058"
     inkscape:cy="229.07892"
     inkscape:window-x="1920"
     inkscape:window-y="0"
     inkscape:window-maximized="0"
     inkscape:current-layer="svg213" />
  <defs
     id="defs5">
    <clipPath
       id="clip0">
      <rect
         x="283"
         y="463"
         width="3536"
         height="1089"
         id="rect2" />
    </clipPath>
  </defs>
  <rect
     style="fill:#91ad73;stroke:#000000;stroke-width:9.16666985;stroke-linejoin:round;stroke-miterlimit:10"
     id="rect7"
     stroke-miterlimit="10"
     height="201"
     width="276"
     y="306.85498"
     x="2531.0386" />
  <path
     style="fill:#ececec;fill-rule:evenodd;stroke:#000000;stroke-width:6.20266008;stroke-linecap:round;stroke-linejoin:round;stroke-miterlimit:10"
     inkscape:connector-curvature="0"
     id="path9"
     stroke-miterlimit="10"
     d="m 910.47847,158.448 v 245.001 h -326.995 V 158.448 Z" />
  <path
     style="fill:#339fb9;fill-rule:evenodd"
     inkscape:connector-curvature="0"
     id="path11"
     d="m 817.47847,253.45 c -10.49,0 -19,-8.283 -19,-18.5 0,-10.217 8.51,-18.5 19,-18.5 10.5,0 19,8.283 19,18.5 0,10.217 -8.5,18.5 -19,18.5 z" />
  <path
     style="fill:#339fb9;fill-rule:evenodd"
     inkscape:connector-curvature="0"
     id="path13"
     d="m 616.48847,225.446 c -10.49,0 -19,-8.506 -19,-19 0,-10.494 8.51,-19 19,-19 10.5,0 19,8.506 19,19 0,10.494 -8.5,19 -19,19 z" />
  <path
     style="fill:#339fb9;fill-rule:evenodd"
     inkscape:connector-curvature="0"
     id="path15"
     d="m 637.48847,382.442 c -10.5,0 -19,-8.507 -19,-19.001 0,-10.493 8.5,-19 19,-19 10.49,0 19,8.507 19,19 0,10.494 -8.51,19.001 -19,19.001 z" />
  <path
     style="fill:#fbdddd;fill-rule:evenodd;stroke:#000000;stroke-width:6.20266008;stroke-linecap:round;stroke-linejoin:round;stroke-miterlimit:10"
     inkscape:connector-curvature="0"
     id="path17"
     stroke-miterlimit="10"
     d="m 910.46847,421.46 v 245.005 h -326.998 V 421.46 Z" />
  <path
     style="fill:#339fb9;fill-rule:evenodd"
     inkscape:connector-curvature="0"
     id="path19"
     d="m 849.38847,464.715 c -9.5,4.44 -20.79,0.36 -25.22,-9.12 -4.42,-9.48 -0.3,-20.76 9.2,-25.193 9.5,-4.437 20.79,-0.353 25.22,9.123 4.42,9.48 0.31,20.76 -9.2,25.19 z" />
  <path
     style="fill:#339fb9;fill-rule:evenodd"
     inkscape:connector-curvature="0"
     id="path21"
     d="m 653.41847,519.115 c -9.51,4.44 -20.8,0.36 -25.22,-9.12 -4.43,-9.48 -0.31,-20.75 9.19,-25.19 9.5,-4.44 20.79,-0.36 25.22,9.12 4.42,9.48 0.31,20.76 -9.19,25.19 z" />
  <path
     style="fill:#339fb9;fill-rule:evenodd"
     inkscape:connector-curvature="0"
     id="path23"
     d="m 739.39847,652.495 c -9.5,4.44 -20.79,0.35 -25.22,-9.12 -4.42,-9.48 -0.31,-20.76 9.2,-25.2 9.5,-4.43 20.79,-0.35 25.22,9.13 4.42,9.47 0.3,20.75 -9.2,25.19 z" />
  <path
     style="fill:#000080"
     inkscape:connector-curvature="0"
     id="path25"
     d="m 1595.0185,214.136 -28.03,170.071 -2.99,-0.494 28.02,-170.07 z m -22.97,23.312 21.96,-26.53 12.28,32.172 c 0.3,0.783 -0.09,1.66 -0.87,1.959 -0.79,0.299 -1.66,-0.093 -1.96,-0.876 l -11.36,-29.742 2.59,0.426 -20.3,24.526 c -0.54,0.646 -1.49,0.736 -2.14,0.201 -0.64,-0.534 -0.73,-1.491 -0.2,-2.136 z m 14.91,122.953 -21.95,26.53 -12.29,-32.172 c -0.3,-0.783 0.09,-1.66 0.88,-1.959 0.78,-0.299 1.66,0.093 1.96,0.876 l 11.35,29.742 -2.58,-0.426 20.3,-24.526 c 0.53,-0.646 1.49,-0.736 2.13,-0.201 0.65,0.534 0.74,1.491 0.2,2.136 z" />
  <path
     style="fill:#bf9000"
     inkscape:connector-curvature="0"
     id="path27"
     d="m 1717.1185,441.695 77.7,-75.802 2.12,2.172 -77.7,75.8 z m 32.31,-5.16 -33.41,8.35 9.18,-33.193 c 0.22,-0.808 1.06,-1.282 1.86,-1.059 0.81,0.223 1.29,1.059 1.06,1.867 l -8.48,30.685 -1.83,-1.88 30.89,-7.72 c 0.81,-0.2 1.63,0.29 1.84,1.11 0.2,0.81 -0.29,1.63 -1.11,1.84 z m 15.19,-63.307 33.41,-8.352 -9.17,33.193 c -0.23,0.808 -1.06,1.282 -1.87,1.059 -0.81,-0.223 -1.28,-1.059 -1.06,-1.867 l 8.48,-30.686 1.83,1.876 -30.88,7.722 c -0.81,0.203 -1.64,-0.291 -1.84,-1.104 -0.21,-0.814 0.29,-1.638 1.1,-1.841 z" />
  <path
     style="fill:#ff6600"
     inkscape:connector-curvature="0"
     id="path29"
     d="m 1578.5585,502.585 70.03,-201.323 2.86,0.997 -70.02,201.326 z m 26.61,-19.05 -26.17,22.4 -6.61,-33.8 c -0.16,-0.82 0.37,-1.62 1.19,-1.78 0.83,-0.16 1.62,0.37 1.79,1.2 l 6.11,31.24 -2.47,-0.86 24.18,-20.7 c 0.64,-0.55 1.6,-0.48 2.14,0.16 0.55,0.64 0.47,1.6 -0.16,2.14 z m 19.68,-162.222 26.16,-22.395 6.62,33.797 c 0.16,0.822 -0.38,1.619 -1.2,1.781 -0.82,0.161 -1.62,-0.376 -1.78,-1.198 l -6.12,-31.244 2.48,0.861 -24.19,20.704 c -0.64,0.545 -1.59,0.471 -2.14,-0.166 -0.54,-0.637 -0.47,-1.595 0.17,-2.14 z" />
  <path
     style="fill:none;fill-rule:evenodd;stroke:#000000;stroke-width:4.04668999;stroke-miterlimit:8"
     inkscape:connector-curvature="0"
     id="path31"
     stroke-miterlimit="8"
     d="m 1523.5085,533.425 2.37,125 103.63,-96.42" />
  <path
     style="fill:#ececec;fill-rule:evenodd;stroke:#000000;stroke-width:5.98324013;stroke-linecap:round;stroke-linejoin:round;stroke-miterlimit:10"
     inkscape:connector-curvature="0"
     id="path33"
     stroke-miterlimit="10"
     d="m 1760.5385,404.826 v 186.529 l -220,-66.47 v -186.53 z" />
  <path
     style="fill:#bf9000;fill-rule:evenodd"
     inkscape:connector-curvature="0"
     id="path35"
     d="m 1717.0385,458.555 c -8.01,-2.1 -14.5,-10.16 -14.5,-18 0,-7.84 6.49,-12.497 14.5,-10.396 8.01,2.101 14.5,10.156 14.5,17.996 0,7.84 -6.49,12.5 -14.5,10.4 z" />
  <path
     style="fill:none;fill-rule:evenodd;stroke:#000080;stroke-width:3.03511;stroke-miterlimit:8"
     inkscape:connector-curvature="0"
     id="path37"
     stroke-miterlimit="8"
     d="m 1565.0085,386.924 -39,272.001" />
  <path
     style="fill:#000080;fill-rule:evenodd"
     inkscape:connector-curvature="0"
     id="path39"
     d="m 1564.0385,395.551 c -8.01,-2.1 -14.5,-10.16 -14.5,-18 0,-7.84 6.49,-12.493 14.5,-10.392 8.01,2.1 14.5,10.159 14.5,18 0,7.84 -6.49,12.493 -14.5,10.392 z" />
  <path
     style="fill:none;fill-rule:evenodd;stroke:#bf9000;stroke-width:3.03511;stroke-miterlimit:8"
     inkscape:connector-curvature="0"
     id="path41"
     stroke-miterlimit="8"
     d="m 1526.0085,658.925 190,-214" />
  <path
     style="fill:none;fill-rule:evenodd;stroke:#ff6600;stroke-width:3.03511;stroke-miterlimit:8"
     inkscape:connector-curvature="0"
     id="path43"
     stroke-miterlimit="8"
     d="m 1526.0085,658.925 53,-153" />
  <path
     style="fill:#ff6600;fill-rule:evenodd"
     inkscape:connector-curvature="0"
     id="path45"
     d="m 1580.5385,519.555 c -7.73,-2.1 -14,-10.16 -14,-18 0,-7.84 6.27,-12.5 14,-10.4 7.73,2.1 14,10.16 14,18 0,7.84 -6.27,12.5 -14,10.4 z" />
  <path
     style="fill:none;fill-rule:evenodd;stroke:#000000;stroke-width:4.04668999;stroke-miterlimit:8"
     inkscape:connector-curvature="0"
     id="path47"
     stroke-miterlimit="8"
     d="m 1525.5085,658.425 104,-16" />
  <path
     style="fill:none;fill-rule:evenodd;stroke:#000000;stroke-width:4.04668999;stroke-miterlimit:8"
     inkscape:connector-curvature="0"
     id="path49"
     stroke-miterlimit="8"
     d="m 1525.5085,658.425 -2,-45" />
  <path
     style="fill:none;fill-rule:evenodd;stroke:#000000;stroke-width:4.04668999;stroke-miterlimit:8"
     inkscape:connector-curvature="0"
     id="path51"
     stroke-miterlimit="8"
     d="m 1523.5085,533.425 106,28.63 v 80.37 l -106,-28.64 z" />
  <path
     style="fill:#fbdddd;fill-rule:evenodd;stroke:#000000;stroke-width:6.20266008;stroke-linecap:round;stroke-linejoin:round;stroke-miterlimit:10"
     inkscape:connector-curvature="0"
     id="path53"
     stroke-miterlimit="10"
     d="m 1378.4385,421.492 v 245.003 h -326 V 421.492 Z" />
  <path
     style="fill:#ececec;fill-rule:evenodd;stroke:#000000;stroke-width:6.20266008;stroke-linecap:round;stroke-linejoin:round;stroke-miterlimit:10"
     inkscape:connector-curvature="0"
     id="path55"
     stroke-miterlimit="10"
     d="m 1378.4485,158.48 v 245.001 h -326 V 158.48 Z" />
  <path
     style="fill:#bf9000;fill-rule:evenodd"
     inkscape:connector-curvature="0"
     id="path57"
     d="m 1285.4485,254.485 c -10.49,0 -19,-8.507 -19,-19 0,-10.494 8.51,-19 19,-19 10.49,0 19,8.506 19,19 0,10.493 -8.51,19 -19,19 z" />
  <path
     style="fill:#000080;fill-rule:evenodd"
     inkscape:connector-curvature="0"
     id="path59"
     d="m 1083.4585,226.479 c -10.49,0 -19,-8.507 -19,-19.001 0,-10.493 8.51,-19 19,-19 10.49,0 19,8.507 19,19 0,10.494 -8.51,19.001 -19,19.001 z" />
  <path
     style="fill:#ff6600;fill-rule:evenodd"
     inkscape:connector-curvature="0"
     id="path61"
     d="m 1105.4485,383.474 c -10.49,0 -19,-8.507 -19,-19 0,-10.494 8.51,-19.001 19,-19.001 10.5,0 19,8.507 19,19.001 0,10.493 -8.5,19 -19,19 z" />
  <path
     style="fill:#bf9000;fill-rule:evenodd"
     inkscape:connector-curvature="0"
     id="path63"
     d="m 1316.3585,467.885 c -9.5,4.43 -20.79,0.35 -25.22,-9.13 -4.42,-9.47 -0.31,-20.75 9.19,-25.19 9.51,-4.437 20.8,-0.35 25.22,9.12 4.43,9.48 0.31,20.76 -9.19,25.2 z" />
  <path
     style="fill:#000080;fill-rule:evenodd"
     inkscape:connector-curvature="0"
     id="path65"
     d="m 1121.0485,519.585 c -9.5,4.44 -20.79,0.36 -25.21,-9.12 -4.43,-9.48 -0.31,-20.75 9.19,-25.19 9.5,-4.44 20.79,-0.36 25.22,9.12 4.42,9.48 0.31,20.76 -9.2,25.19 z" />
  <path
     style="fill:#ff6600;fill-rule:evenodd"
     inkscape:connector-curvature="0"
     id="path67"
     d="m 1207.0385,652.975 c -9.5,4.43 -20.79,0.35 -25.22,-9.13 -4.42,-9.47 -0.3,-20.75 9.2,-25.19 9.5,-4.44 20.79,-0.35 25.22,9.12 4.42,9.48 0.31,20.76 -9.2,25.2 z" />
  <path
     style="fill:none;fill-rule:evenodd;stroke:#000080;stroke-width:2.67673993;stroke-miterlimit:8"
     inkscape:connector-curvature="0"
     id="path69"
     stroke-miterlimit="8"
     d="m 1084.0385,209.755 32,293" />
  <path
     style="fill:none;fill-rule:evenodd;stroke:#bf9000;stroke-width:2.68107009;stroke-miterlimit:8"
     inkscape:connector-curvature="0"
     id="path71"
     stroke-miterlimit="8"
     d="m 1283.0354,233.491 24.0001,210.00051" />
  <path
     style="fill:none;fill-rule:evenodd;stroke:#ff6600;stroke-width:2.67673993;stroke-miterlimit:8"
     inkscape:connector-curvature="0"
     id="path73"
     stroke-miterlimit="8"
     d="m 1109.0285,369.404 87,273.001" />
  <path
     style="fill:#fbdddd;fill-rule:evenodd;stroke:#000000;stroke-width:6.30768013;stroke-linecap:round;stroke-linejoin:round;stroke-miterlimit:10"
     inkscape:connector-curvature="0"
     id="path95"
     stroke-miterlimit="10"
     d="m 2372.5385,322.355 v 163.67 l -216,58.33 V 380.681 Z" />
  <path
     style="fill:#bf9000;fill-rule:evenodd"
     inkscape:connector-curvature="0"
     id="path97"
     d="m 2331.2885,363.909 c -6.21,4.665 -13.6,3.945 -16.5,-1.608 -2.9,-5.553 -0.21,-13.836 6,-18.5 6.21,-4.665 13.6,-3.945 16.5,1.608 2.9,5.553 0.21,13.836 -6,18.5 z" />
  <path
     style="fill:#000080;fill-rule:evenodd"
     inkscape:connector-curvature="0"
     id="path99"
     d="m 2201.9485,433.905 c -6.4,4.67 -14.01,3.95 -17,-1.604 -2.99,-5.553 -0.22,-13.836 6.18,-18.5 6.4,-4.665 14.01,-3.945 17,1.608 2.99,5.553 0.22,13.836 -6.18,18.496 z" />
  <path
     style="fill:#ff6600;fill-rule:evenodd"
     inkscape:connector-curvature="0"
     id="path101"
     d="m 2258.9485,507.135 c -6.4,4.54 -14.01,3.84 -17,-1.56 -2.99,-5.4 -0.22,-13.46 6.18,-18 6.4,-4.54 14.01,-3.84 17,1.56 2.99,5.41 0.22,13.46 -6.18,18 z" />
  <path
     style="fill:#000080"
     inkscape:connector-curvature="0"
     id="path103"
     d="m 2002.0085,214.131 -25,148.075 -3,-0.505 25,-148.075 z m -23.06,23.221 22.06,-26.443 12.16,32.221 c 0.3,0.784 -0.1,1.659 -0.88,1.955 -0.79,0.296 -1.66,-0.1 -1.96,-0.884 l -11.24,-29.787 2.59,0.437 -20.4,24.446 c -0.54,0.643 -1.49,0.73 -2.14,0.193 -0.64,-0.537 -0.73,-1.494 -0.19,-2.138 z m 18.12,101.128 -22.06,26.443 -12.16,-32.221 c -0.29,-0.784 0.1,-1.66 0.89,-1.956 0.78,-0.296 1.65,0.1 1.95,0.884 l 11.24,29.787 -2.58,-0.436 20.39,-24.446 c 0.54,-0.643 1.5,-0.73 2.14,-0.193 0.64,0.537 0.73,1.494 0.19,2.138 z" />
  <path
     style="fill:#bf9000"
     inkscape:connector-curvature="0"
     id="path105"
     d="m 2109.2685,412.273 74.12,-72.249 2.4,2.462 -74.13,72.249 z m 32.5,-4.808 -33.75,8.42 9.29,-33.522 c 0.25,-0.915 1.2,-1.451 2.11,-1.197 0.91,0.253 1.45,1.2 1.2,2.115 l -8.5,30.682 -2.07,-2.126 30.89,-7.707 c 0.92,-0.23 1.85,0.33 2.08,1.251 0.23,0.921 -0.33,1.854 -1.25,2.084 z m 11.52,-60.171 33.74,-8.42 -9.28,33.522 c -0.25,0.915 -1.2,1.451 -2.11,1.197 -0.92,-0.253 -1.45,-1.2 -1.2,-2.115 l 8.49,-30.682 2.08,2.126 -30.89,7.707 c -0.92,0.23 -1.86,-0.33 -2.09,-1.251 -0.23,-0.921 0.33,-1.854 1.26,-2.084 z" />
  <path
     style="fill:#ff6600"
     inkscape:connector-curvature="0"
     id="path107"
     d="m 1987.5585,465.575 61.03,-175.321 2.87,0.998 -61.03,175.323 z m 26.62,-19.04 -26.17,22.39 -6.61,-33.8 c -0.16,-0.82 0.37,-1.62 1.2,-1.78 0.82,-0.16 1.62,0.37 1.78,1.2 l 6.11,31.24 -2.48,-0.86 24.19,-20.7 c 0.64,-0.54 1.6,-0.47 2.14,0.17 0.55,0.63 0.47,1.59 -0.16,2.14 z m 10.67,-136.236 26.16,-22.39 6.61,33.798 c 0.16,0.823 -0.37,1.62 -1.2,1.781 -0.82,0.161 -1.62,-0.376 -1.78,-1.198 l -6.11,-31.245 2.48,0.862 -24.19,20.698 c -0.64,0.545 -1.6,0.471 -2.14,-0.166 -0.55,-0.637 -0.47,-1.595 0.17,-2.14 z" />
  <path
     style="fill:none;fill-rule:evenodd;stroke:#000000;stroke-width:4.04668999;stroke-miterlimit:8"
     inkscape:connector-curvature="0"
     id="path109"
     stroke-miterlimit="8"
     d="m 1939.5085,493.415 2.08,109 90.92,-84.07" />
  <path
     style="fill:#ececec;fill-rule:evenodd;stroke:#000000;stroke-width:5.98324013;stroke-linecap:round;stroke-linejoin:round;stroke-miterlimit:10"
     inkscape:connector-curvature="0"
     id="path111"
     stroke-miterlimit="10"
     d="m 2146.5385,380.681 v 163.674 l -193,-58.33 v -163.67 z" />
  <path
     style="fill:#bf9000;fill-rule:evenodd"
     inkscape:connector-curvature="0"
     id="path113"
     d="m 2109.0385,427.974 c -6.9,-1.867 -12.5,-9.031 -12.5,-16 0,-6.969 5.6,-11.105 12.5,-9.238 6.9,1.867 12.5,9.031 12.5,16 0,6.969 -5.6,11.105 -12.5,9.238 z" />
  <path
     style="fill:none;fill-rule:evenodd;stroke:#000080;stroke-width:3.03511;stroke-miterlimit:8"
     inkscape:connector-curvature="0"
     id="path115"
     stroke-miterlimit="8"
     d="m 1975.0085,364.916 -33,237.999" />
  <path
     style="fill:#000080;fill-rule:evenodd"
     inkscape:connector-curvature="0"
     id="path117"
     d="m 1975.0385,372.974 c -6.9,-1.867 -12.5,-9.031 -12.5,-16 0,-6.969 5.6,-11.105 12.5,-9.238 6.9,1.867 12.5,9.031 12.5,16 0,6.969 -5.6,11.105 -12.5,9.238 z" />
  <path
     style="fill:none;fill-rule:evenodd;stroke:#bf9000;stroke-width:3.03511;stroke-miterlimit:8"
     inkscape:connector-curvature="0"
     id="path119"
     stroke-miterlimit="8"
     d="m 1942.0085,602.915 166,-186.999" />
  <path
     style="fill:none;fill-rule:evenodd;stroke:#ff6600;stroke-width:3.03511;stroke-miterlimit:8"
     inkscape:connector-curvature="0"
     id="path121"
     stroke-miterlimit="8"
     d="m 1942.0085,602.915 46,-134" />
  <path
     style="fill:#ff6600;fill-rule:evenodd"
     inkscape:connector-curvature="0"
     id="path123"
     d="m 1989.0385,480.975 c -6.9,-1.87 -12.5,-9.03 -12.5,-16 0,-6.97 5.6,-11.11 12.5,-9.24 6.9,1.87 12.5,9.03 12.5,16 0,6.97 -5.6,11.11 -12.5,9.24 z" />
  <path
     style="fill:none;fill-rule:evenodd;stroke:#000000;stroke-width:4.04668999;stroke-miterlimit:8"
     inkscape:connector-curvature="0"
     id="path125"
     stroke-miterlimit="8"
     d="m 1941.5085,602.415 91,-14" />
  <path
     style="fill:none;fill-rule:evenodd;stroke:#000000;stroke-width:4.04668999;stroke-miterlimit:8"
     inkscape:connector-curvature="0"
     id="path127"
     stroke-miterlimit="8"
     d="m 1941.5085,602.415 -2,-39" />
  <path
     style="fill:none;fill-rule:evenodd;stroke:#000000;stroke-width:4.04668999;stroke-miterlimit:8"
     inkscape:connector-curvature="0"
     id="path129"
     stroke-miterlimit="8"
     d="m 1939.5085,493.415 93,24.96 v 70.04 l -93,-24.96 z" />
  <path
     style="fill:none;fill-rule:evenodd;stroke:#bf9000;stroke-width:3.03511;stroke-miterlimit:8"
     inkscape:connector-curvature="0"
     id="path131"
     stroke-miterlimit="8"
     d="m 2364.0085,617.915 -39,-261.001" />
  <path
     style="fill:none;fill-rule:evenodd;stroke:#000080;stroke-width:3.03511;stroke-miterlimit:8"
     inkscape:connector-curvature="0"
     id="path133"
     stroke-miterlimit="8"
     d="m 2198.0085,424.916 166,192.999" />
  <path
     style="fill:none;fill-rule:evenodd;stroke:#ff6600;stroke-width:3.03511;stroke-miterlimit:8"
     inkscape:connector-curvature="0"
     id="path135"
     stroke-miterlimit="8"
     d="m 2364.0085,617.915 -108,-118" />
  <path
     style="fill:none;fill-rule:evenodd;stroke:#000000;stroke-width:4.04668999;stroke-miterlimit:8"
     inkscape:connector-curvature="0"
     id="path137"
     stroke-miterlimit="8"
     d="m 2274.5085,522.275 93,-28.86 v 70.13 l -93,28.87 z" />
  <path
     style="fill:none;fill-rule:evenodd;stroke:#000000;stroke-width:4.04668999;stroke-miterlimit:8"
     inkscape:connector-curvature="0"
     id="path139"
     stroke-miterlimit="8"
     d="m 2274.5085,592.415 89,25" />
  <path
     style="fill:none;fill-rule:evenodd;stroke:#000000;stroke-width:4.04668999;stroke-miterlimit:8"
     inkscape:connector-curvature="0"
     id="path141"
     stroke-miterlimit="8"
     d="m 2367.5085,563.415 -4,54" />
  <path
     style="fill:none;fill-rule:evenodd;stroke:#000000;stroke-width:4.04668999;stroke-miterlimit:8"
     inkscape:connector-curvature="0"
     id="path143"
     stroke-miterlimit="8"
     d="m 2367.5085,493.415 -4,124" />
  <path
     style="fill:none;fill-rule:evenodd;stroke:#000000;stroke-width:4.04668999;stroke-miterlimit:8"
     inkscape:connector-curvature="0"
     id="path145"
     stroke-miterlimit="8"
     d="m 2274.5085,522.415 89,95" />
  <path
     style="fill:#ff0000"
     inkscape:connector-curvature="0"
     id="path147"
     d="m 1929.9851,610.23766 0.2405,4.95682 0.9078,5.99823 1.5034,5.80158 2.0777,5.68692 2.6645,5.56392 3.1908,5.40349 3.7543,5.27134 4.124,5.04491 4.6101,4.93324 5.0511,4.77382 5.5417,4.60102 5.7621,4.39418 6.1847,4.3004 6.6133,4.13945 14.0713,7.73483 15.607,7.21181 16.8094,6.46824 17.891,5.77501 19.0073,4.99439 19.8747,4.19015 20.7286,3.33621 21.3679,2.47027 22.1705,1.43125 22.0269,0.46374 21.5033,-0.58596 20.7163,-1.52219 19.947,-2.39572 19.0132,-3.35931 17.9743,-4.18865 16.9394,-5.03915 15.6326,-5.78321 7.4537,-3.17446 7.0542,-3.38748 6.7042,-3.62426 6.2309,-3.66883 5.9784,-4.00903 5.4665,-4.02589 c 1.0115,-0.7464 1.8573,-1.69277 2.4872,-2.78015 l 5.5125,-9.51772 -15.8652,-9.18806 -5.5115,9.51778 2.4871,-2.78015 -4.8207,3.57031 -5.0514,3.42302 -5.653,3.34287 -5.9221,3.2233 -6.3014,3.04628 -6.6312,2.84551 -14.4952,5.40292 -15.869,4.7545 -17.0025,3.98924 -18.007,3.20911 -19.1035,2.3138 -19.8719,1.47938 -20.6158,0.58281 -21.2357,-0.43025 -21.2435,-1.34827 -20.5616,-2.35923 -19.8609,-3.17544 -19.0002,-3.98385 -18.0349,-4.71063 -16.9441,-5.44136 -15.7064,-6.00336 -14.4585,-6.63322 -13.1826,-7.21432 -5.8705,-3.65065 -5.5305,-3.82485 -5.1911,-3.94143 -4.6558,-3.8201 -4.2531,-3.97591 -3.8071,-4.02029 -3.4064,-4.11241 -2.8957,-3.96494 -2.4474,-4.03003 -1.9686,-3.942 -1.5437,-4.01624 -1.1128,-3.974 -0.6966,-3.97458 -0.2405,-4.95692 z m 433.1778,73.56586 -0.6588,-61.48786 -48.7956,37.41925 z" />
  <text
     style="font-weight:500;font-size:73px;font-family:'CMU Serif', 'CMU Serif_MSFontService', sans-serif"
     id="text157"
     font-size="73"
     font-weight="500"
     x="2031.0985"
     y="783.35498">Estimate<tspan
   style="font-size:73px"
   id="tspan149"
   y="847.35498"
   x="1974.6776"
   font-size="73">rotation and</tspan>
<tspan
   style="font-size:73px"
   id="tspan151"
   y="911.35498"
   x="2001.0319"
   font-size="73">translation</tspan>
<tspan
   style="font-size:73px"
   id="tspan153"
   y="388.35498"
   x="2586.6646"
   font-size="73">Local</tspan>
<tspan
   style="font-size:73px"
   id="tspan155"
   y="452.35498"
   x="2573.4875"
   font-size="73">Policy</tspan>
</text>
  <path
     inkscape:connector-curvature="0"
     id="path159"
     d="m 2809.0385,396.418 h 72.67 v 6.875 h -72.67 z m 68.09,-10.313 27.5,13.751 -27.5,13.749 z" />
  <path
     inkscape:connector-curvature="0"
     id="path161"
     d="m 947.03847,407.418 h 52.68 v 6.875 h -52.68 z m 48.1,-10.313 27.50003,13.751 -27.50003,13.749 z" />
  <path
     inkscape:connector-curvature="0"
     id="path163"
     d="m 2389.0385,405.418 h 113.91 v 6.875 h -113.91 z m 109.33,-10.313 27.5,13.75 -27.5,13.75 z" />
  <path
     inkscape:connector-curvature="0"
     id="path165"
     d="m 1404.0385,410.417 52.68,0.001 v 6.875 l -52.68,-0.001 z m 48.1,-10.312 27.5,13.75 -27.5,13.75 z" />
  <path
     inkscape:connector-curvature="0"
     id="path167"
     d="m 1833.0385,406.418 h 52.68 v 6.875 h -52.68 z m 48.1,-10.313 27.5,13.75 -27.5,13.75 z" />
  <text
     style="font-weight:500;font-size:73px;font-family:'CMU Serif', 'CMU Serif_MSFontService', sans-serif"
     id="text177"
     font-size="73"
     font-weight="500"
     x="-2.3525391"
     y="289.35498">Agent Image<tspan
   style="font-size:73px"
   id="tspan169"
   y="572.35498"
   x="18.558472"
   font-size="73">Goal Image</tspan>
<tspan
   style="font-size:73px"
   id="tspan171"
   y="731.35498"
   x="79.299164"
   font-size="73">Camera</tspan>
<tspan
   style="font-size:73px"
   id="tspan173"
   y="795.35498"
   x="55.511673"
   font-size="73">Intrinsics</tspan>
<tspan
   style="font-size:73px"
   id="tspan175"
   y="921.35498"
   x="9.1056671"
   font-size="73">Depth mask</tspan>
</text>
  <path
     style="fill:none;fill-rule:evenodd;stroke:#000000;stroke-width:6.875;stroke-linejoin:round;stroke-miterlimit:10"
     inkscape:connector-curvature="0"
     id="path179"
     stroke-miterlimit="10"
     d="M 540.03847,897.855 H 1651.2985" />
  <path
     inkscape:connector-curvature="0"
     id="path181"
     d="m 1654.476,897.225 3e-4,-215.456 h -6.875 l -3e-4,215.456 z m 10.3128,-210.873 -13.7499,-27.5 -13.7501,27.5 z" />
  <path
     style="fill:none;fill-rule:evenodd;stroke:#000000;stroke-width:6.875;stroke-linejoin:round;stroke-miterlimit:10"
     inkscape:connector-curvature="0"
     id="path183"
     stroke-miterlimit="10"
     d="M 423.03847,745.855 H 1650.9585" />
  <path
     inkscape:connector-curvature="0"
     id="path185"
     d="m 417.03847,552.415 h 142.083 v 6.88 h -142.083 z m 137.5,-10.31 27.5,13.75 -27.5,13.75 z" />
  <text
     style="font-weight:500;font-size:73px;font-family:'CMU Concrete', 'CMU Concrete_MSFontService', sans-serif"
     id="text193"
     font-size="73"
     font-weight="500"
     x="2917.9885"
     y="328.35498">move forward<tspan
   style="font-size:73px"
   id="tspan187"
   y="392.35498"
   x="2978.4426"
   font-size="73">turn right</tspan>
<tspan
   style="font-size:73px"
   id="tspan189"
   y="456.35498"
   x="3004.2239"
   font-size="73">turn left</tspan>
<tspan
   style="font-size:73px"
   id="tspan191"
   y="521.35498"
   x="3070.9575"
   font-size="73">stop</tspan>
</text>
  <path
     style="fill:none;fill-rule:evenodd;stroke:#000000;stroke-width:6.875;stroke-linejoin:round;stroke-miterlimit:10"
     inkscape:connector-curvature="0"
     id="path195"
     stroke-miterlimit="10"
     d="m 2938.0385,252.855 -33,3.6e-4" />
  <path
     style="fill:none;fill-rule:evenodd;stroke:#000000;stroke-width:6.875;stroke-linejoin:round;stroke-miterlimit:10"
     inkscape:connector-curvature="0"
     id="path197"
     stroke-miterlimit="10"
     d="m 2907.0385,547.995 4e-4,-297.139" />
  <path
     style="fill:none;fill-rule:evenodd;stroke:#000000;stroke-width:6.875;stroke-linejoin:round;stroke-miterlimit:10"
     inkscape:connector-curvature="0"
     id="path199"
     stroke-miterlimit="10"
     d="m 2940.2685,547.855 -33.2292,3.6e-4" />
  <path
     inkscape:connector-curvature="0"
     id="path201"
     d="m 447.03847,272.418 h 120.949 v 6.875 h -120.949 z m 116.365,-10.313 27.505,13.75 -27.505,13.75 z" />
  <rect
     style="fill:#7f7f7f;fill-opacity:0.09019608;stroke:#000000;stroke-width:4.58333015;stroke-linejoin:round;stroke-miterlimit:10"
     id="rect203"
     stroke-miterlimit="10"
     height="58.000099"
     width="396"
     y="338.85498"
     x="2946.0386" />
  <path
     style="fill:none;fill-rule:evenodd;stroke:#000000;stroke-width:6.875;stroke-linejoin:round;stroke-miterlimit:10"
     inkscape:connector-curvature="0"
     id="path205"
     stroke-miterlimit="10"
     d="m 3402.3319,252.855 h 30.85" />
  <path
     style="fill:none;fill-rule:evenodd;stroke:#000000;stroke-width:6.875;stroke-linejoin:round;stroke-miterlimit:10"
     inkscape:connector-curvature="0"
     id="path207"
     stroke-miterlimit="10"
     d="M 3431.3319,547.995 V 250.855" />
  <path
     style="fill:none;fill-rule:evenodd;stroke:#000000;stroke-width:6.875;stroke-linejoin:round;stroke-miterlimit:10"
     inkscape:connector-curvature="0"
     id="path209"
     stroke-miterlimit="10"
     d="m 3400.3319,547.855 h 31.06" />
  <text
     style="font-style:italic;font-weight:400;font-size:73px;font-family:Calibri, Calibri_MSFontService, sans-serif"
     id="text93-5"
     font-size="73"
     font-weight="400"
     font-style="italic"
     x="599.48212"
     y="62.060913">Feature <tspan
   style="font-size:73px"
   id="tspan75-9"
   y="127.06091"
   x="562.81543"
   font-size="73">Extraction</tspan>
</text>
  <text
     style="font-style:italic;font-variant:normal;font-weight:normal;font-stretch:normal;font-size:73px;font-family:Calibri, Calibri_MSFontService, sans-serif;-inkscape-font-specification:'Calibri, Calibri_MSFontService, sans-serif, Italic';font-variant-ligatures:normal;font-variant-caps:normal;font-variant-numeric:normal;font-feature-settings:normal;text-align:start;writing-mode:lr-tb;text-anchor:start"
     id="text93-5-4-1"
     font-size="73"
     font-weight="400"
     font-style="italic"
     x="1522.3572"
     y="39.215927">
    <tspan
       sodipodi:role="line"
       id="tspan5021"
       x="1522.3572"
       y="39.215927"
       style="line-height:0.025"
       dy="19.440001">Feature</tspan>
    <tspan
       sodipodi:role="line"
       id="tspan5023"
       x="1522.3572"
       y="130.46593"
       style="line-height:0.025">2D→3D</tspan>
  </text>
  <text
     style="font-style:italic;font-variant:normal;font-weight:normal;font-stretch:normal;font-size:73px;font-family:Calibri, Calibri_MSFontService, sans-serif;-inkscape-font-specification:'Calibri, Calibri_MSFontService, sans-serif, Italic';font-variant-ligatures:normal;font-variant-caps:normal;font-variant-numeric:normal;font-feature-settings:normal;text-align:start;writing-mode:lr-tb;text-anchor:start"
     id="text93-5-4-1-8"
     font-size="73"
     font-weight="400"
     font-style="italic"
     x="1081.0424"
     y="39.215927">
    <tspan
       sodipodi:role="line"
       id="tspan5021-9"
       x="1081.0424"
       y="39.215927"
       style="line-height:0.025"
       dy="19.440001">Feature</tspan>
    <tspan
       sodipodi:role="line"
       id="tspan5023-3"
       x="1081.0424"
       y="130.46593"
       style="line-height:0.025">Matcher</tspan>
  </text>
  <text
     style="font-style:italic;font-variant:normal;font-weight:normal;font-stretch:normal;font-size:73px;font-family:Calibri, Calibri_MSFontService, sans-serif;-inkscape-font-specification:'Calibri, Calibri_MSFontService, sans-serif, Italic';font-variant-ligatures:normal;font-variant-caps:normal;font-variant-numeric:normal;font-feature-settings:normal;text-align:start;writing-mode:lr-tb;text-anchor:start"
     id="text93-5-4-1-6"
     font-size="73"
     font-weight="400"
     font-style="italic"
     x="2179.5625"
     y="55.462891">
    <tspan
       sodipodi:role="line"
       id="tspan5069"
       x="2179.5625"
       y="55.462891"
       style="text-align:center;text-anchor:middle">Perspective-n-</tspan>
    <tspan
       sodipodi:role="line"
       id="tspan5071"
       x="2179.5625"
       y="146.71289"
       style="text-align:center;text-anchor:middle">Points</tspan>
  </text>
</svg>
