<svg width="4234" height="1133" xmlns="http://www.w3.org/2000/svg" xmlns:xlink="http://www.w3.org/1999/xlink" overflow="hidden"><defs><clipPath id="clip0"><rect x="283" y="419" width="4234" height="1133"/></clipPath></defs><g clip-path="url(#clip0)" transform="translate(-283 -419)"><path d="M2813.38 601.5 2845.5 601.5 2845.5 808.5 2571.5 808.5 2571.5 673.884Z" stroke="#2F528F" stroke-width="6.875" stroke-linecap="round" stroke-linejoin="round" stroke-miterlimit="10" stroke-dasharray="0 13.75" fill="#FBDDDD" fill-rule="evenodd"/><path d="M3.4245-0.298638 4.02178 6.55037-2.82723 7.14764-3.4245 0.298638ZM4.61905 13.3994 5.21633 20.2484-1.63268 20.8457-2.22995 13.9966ZM5.8136 27.0974 6.41088 33.9464-0.438127 34.5437-1.0354 27.6947ZM7.00816 40.7954 7.60543 47.6444 0.756424 48.2417 0.159148 41.3927ZM8.2027 54.4934 8.79998 61.3424 1.95097 61.9397 1.3537 55.0907ZM9.39726 68.1914 9.99453 75.0404 3.14552 75.6377 2.54825 68.7887ZM23.5373 51.0777 7.42963 85.1962-14.3407 54.3809C-15.4361 52.8304-15.0672 50.6854-13.5166 49.5899-11.9661 48.4945-9.82107 48.8634-8.72563 50.414L9.64448 76.4164 3.72846 76.9323 17.3204 48.1426C18.1309 46.4258 20.1796 45.6912 21.8964 46.5017 23.6132 47.3122 24.3479 49.361 23.5373 51.0777Z" fill="#2F528F" transform="matrix(1 0 0 -1 2700.5 894.68)"/><path d="M2634.5 803.5 2597.5 754.5" stroke="#BF9000" stroke-width="6.875" stroke-miterlimit="8" fill="none" fill-rule="evenodd"/><path d="M2823.42 670.321C2809.91 680.445 2793.84 678.886 2787.54 666.835 2781.23 654.784 2787.08 636.802 2800.58 626.68 2814.09 616.556 2830.16 618.115 2836.46 630.166 2842.77 642.225 2836.92 660.199 2823.42 670.321Z" fill="#BF9000" fill-rule="evenodd"/><path d="M2622.5 763.5 2575.5 744.5" stroke="#FF0000" stroke-width="6.875" stroke-linejoin="round" stroke-miterlimit="10" fill="none" fill-rule="evenodd"/><path d="M2607.5 729.5 2589.5 776.501" stroke="#FF0000" stroke-width="6.875" stroke-linejoin="round" stroke-miterlimit="10" fill="none" fill-rule="evenodd"/><path d="M0.294701 65.6695 40.1163 1.76953 42.6922 3.37477 2.87056 67.2747ZM30.4497 52.9595-0.0101896 69.028 0.995924 34.6044C1.02041 33.7666 1.7194 33.1073 2.55716 33.1318 3.39493 33.1563 4.05422 33.8553 4.02973 34.693L3.09962 66.5163 0.874648 65.1297 29.0335 50.2751C29.7748 49.884 30.6928 50.1679 31.0839 50.9092 31.4749 51.6505 31.191 52.5685 30.4497 52.9595ZM12.5373 16.0845 42.9972 0.0160068 41.9911 34.4397C41.9666 35.2774 41.2676 35.9367 40.4299 35.9122 39.5921 35.8878 38.9328 35.1888 38.9573 34.351L39.8874 2.52774 42.1124 3.91432 13.9535 18.769C13.2122 19.16 12.2942 18.8761 11.9032 18.1348 11.5121 17.3935 11.796 16.4756 12.5373 16.0845Z" fill="#BF9000" transform="matrix(1 0 0 -1 2601.5 977.5)"/><path d="M3.43749-0.00885197 3.83284 153.518-3.04214 153.535-3.43749 0.00885197ZM14.1335 148.908 0.454364 176.443-13.3664 148.979Z" transform="matrix(-1 0 0 1 3272.95 1155.5)"/><rect x="3643.5" y="874.5" width="277" height="201" stroke="#000000" stroke-width="9.16667" stroke-linejoin="round" stroke-miterlimit="10" fill="#91AD73"/><path d="M1325.94 726.093 1325.94 971.094 998.945 971.094 998.945 726.093Z" stroke="#000000" stroke-width="6.20266" stroke-linecap="round" stroke-linejoin="round" stroke-miterlimit="10" fill="#ECECEC" fill-rule="evenodd"/><path d="M1232.94 821.095C1222.45 821.095 1213.94 812.812 1213.94 802.595 1213.94 792.378 1222.45 784.095 1232.94 784.095 1243.44 784.095 1251.94 792.378 1251.94 802.595 1251.94 812.812 1243.44 821.095 1232.94 821.095Z" fill="#339FB9" fill-rule="evenodd"/><path d="M1031.95 793.091C1021.46 793.091 1012.95 784.585 1012.95 774.091 1012.95 763.597 1021.46 755.091 1031.95 755.091 1042.45 755.091 1050.95 763.597 1050.95 774.091 1050.95 784.585 1042.45 793.091 1031.95 793.091Z" fill="#339FB9" fill-rule="evenodd"/><path d="M1052.95 950.087C1042.45 950.087 1033.95 941.58 1033.95 931.086 1033.95 920.593 1042.45 912.086 1052.95 912.086 1063.44 912.086 1071.95 920.593 1071.95 931.086 1071.95 941.58 1063.44 950.087 1052.95 950.087Z" fill="#339FB9" fill-rule="evenodd"/><path d="M1325.93 989.105 1325.93 1234.11 998.932 1234.11 998.932 989.105Z" stroke="#000000" stroke-width="6.20266" stroke-linecap="round" stroke-linejoin="round" stroke-miterlimit="10" fill="#FBDDDD" fill-rule="evenodd"/><path d="M1264.85 1032.36C1255.35 1036.8 1244.06 1032.72 1239.63 1023.24 1235.21 1013.76 1239.33 1002.48 1248.83 998.047 1258.33 993.61 1269.62 997.694 1274.05 1007.17 1278.47 1016.65 1274.36 1027.93 1264.85 1032.36Z" fill="#339FB9" fill-rule="evenodd"/><path d="M1068.88 1086.76C1059.37 1091.2 1048.08 1087.12 1043.66 1077.64 1039.23 1068.16 1043.35 1056.89 1052.85 1052.45 1062.35 1048.01 1073.64 1052.09 1078.07 1061.57 1082.49 1071.05 1078.38 1082.33 1068.88 1086.76Z" fill="#339FB9" fill-rule="evenodd"/><path d="M1154.86 1220.14C1145.36 1224.58 1134.07 1220.49 1129.64 1211.02 1125.22 1201.54 1129.33 1190.26 1138.84 1185.82 1148.34 1181.39 1159.63 1185.47 1164.06 1194.95 1168.48 1204.42 1164.36 1215.7 1154.86 1220.14Z" fill="#339FB9" fill-rule="evenodd"/><path d="M2010.48 781.781 1982.45 951.852 1979.46 951.358 2007.48 781.288ZM1987.51 805.093 2009.47 778.563 2021.75 810.735C2022.05 811.518 2021.66 812.395 2020.88 812.694 2020.09 812.993 2019.22 812.601 2018.92 811.818L2007.56 782.076 2010.15 782.502 1989.85 807.028C1989.31 807.674 1988.36 807.764 1987.71 807.229 1987.07 806.695 1986.98 805.738 1987.51 805.093ZM2002.42 928.046 1980.47 954.576 1968.18 922.404C1967.88 921.621 1968.27 920.744 1969.06 920.445 1969.84 920.146 1970.72 920.538 1971.02 921.321L1982.37 951.063 1979.79 950.637 2000.09 926.111C2000.62 925.465 2001.58 925.375 2002.22 925.91 2002.87 926.444 2002.96 927.401 2002.42 928.046Z" fill="#000080"/><path d="M2132.58 1009.34 2210.28 933.538 2212.4 935.71 2134.7 1011.51ZM2164.89 1004.18 2131.48 1012.53 2140.66 979.337C2140.88 978.529 2141.72 978.055 2142.52 978.278 2143.33 978.501 2143.81 979.337 2143.58 980.145L2135.1 1010.83 2133.27 1008.95 2164.16 1001.23C2164.97 1001.03 2165.79 1001.52 2166 1002.34 2166.2 1003.15 2165.71 1003.97 2164.89 1004.18ZM2180.08 940.873 2213.49 932.521 2204.32 965.714C2204.09 966.522 2203.26 966.996 2202.45 966.773 2201.64 966.55 2201.17 965.714 2201.39 964.906L2209.87 934.22 2211.7 936.096 2180.82 943.818C2180.01 944.021 2179.18 943.527 2178.98 942.714 2178.77 941.9 2179.27 941.076 2180.08 940.873Z" fill="#BF9000"/><path d="M1994.02 1070.23 2064.05 868.907 2066.91 869.904 1996.89 1071.23ZM2020.63 1051.18 1994.46 1073.58 1987.85 1039.78C1987.69 1038.96 1988.22 1038.16 1989.04 1038 1989.87 1037.84 1990.66 1038.37 1990.83 1039.2L1996.94 1070.44 1994.47 1069.58 2018.65 1048.88C2019.29 1048.33 2020.25 1048.4 2020.79 1049.04 2021.34 1049.68 2021.26 1050.64 2020.63 1051.18ZM2040.31 888.958 2066.47 866.563 2073.09 900.36C2073.25 901.182 2072.71 901.979 2071.89 902.141 2071.07 902.302 2070.27 901.765 2070.11 900.943L2063.99 869.699 2066.47 870.56 2042.28 891.264C2041.64 891.809 2040.69 891.735 2040.14 891.098 2039.6 890.461 2039.67 889.503 2040.31 888.958Z" fill="#FF6600"/><path d="M1938.97 1101.07 1941.34 1226.07 2044.97 1129.65" stroke="#000000" stroke-width="4.04669" stroke-miterlimit="8" fill="none" fill-rule="evenodd"/><path d="M2176 972.471 2176 1159 1956 1092.53 1956 906Z" stroke="#000000" stroke-width="5.98324" stroke-linecap="round" stroke-linejoin="round" stroke-miterlimit="10" fill="#ECECEC" fill-rule="evenodd"/><path d="M2132.5 1026.2C2124.49 1024.1 2118 1016.04 2118 1008.2 2118 1000.36 2124.49 995.703 2132.5 997.804 2140.51 999.905 2147 1007.96 2147 1015.8 2147 1023.64 2140.51 1028.3 2132.5 1026.2Z" fill="#BF9000" fill-rule="evenodd"/><path d="M1980.47 954.569 1941.47 1226.57" stroke="#000080" stroke-width="3.03511" stroke-miterlimit="8" fill="none" fill-rule="evenodd"/><path d="M1979.5 963.196C1971.49 961.096 1965 953.036 1965 945.196 1965 937.356 1971.49 932.703 1979.5 934.804 1987.51 936.904 1994 944.963 1994 952.804 1994 960.644 1987.51 965.297 1979.5 963.196Z" fill="#000080" fill-rule="evenodd"/><path d="M1941.47 1226.57 2131.47 1012.57" stroke="#BF9000" stroke-width="3.03511" stroke-miterlimit="8" fill="none" fill-rule="evenodd"/><path d="M1941.47 1226.57 1994.47 1073.57" stroke="#FF6600" stroke-width="3.03511" stroke-miterlimit="8" fill="none" fill-rule="evenodd"/><path d="M1996 1087.2C1988.27 1085.1 1982 1077.04 1982 1069.2 1982 1061.36 1988.27 1056.7 1996 1058.8 2003.73 1060.9 2010 1068.96 2010 1076.8 2010 1084.64 2003.73 1089.3 1996 1087.2Z" fill="#FF6600" fill-rule="evenodd"/><path d="M1940.97 1226.07 2044.97 1210.07" stroke="#000000" stroke-width="4.04669" stroke-miterlimit="8" fill="none" fill-rule="evenodd"/><path d="M1940.97 1226.07 1938.97 1181.07" stroke="#000000" stroke-width="4.04669" stroke-miterlimit="8" fill="none" fill-rule="evenodd"/><path d="M1938.97 1101.07 2044.97 1129.7 2044.97 1210.07 1938.97 1181.43Z" stroke="#000000" stroke-width="4.04669" stroke-miterlimit="8" fill="none" fill-rule="evenodd"/><path d="M1793.9 989.137 1793.9 1234.14 1467.9 1234.14 1467.9 989.137Z" stroke="#000000" stroke-width="6.20266" stroke-linecap="round" stroke-linejoin="round" stroke-miterlimit="10" fill="#FBDDDD" fill-rule="evenodd"/><path d="M1793.91 726.125 1793.91 971.126 1467.91 971.126 1467.91 726.125Z" stroke="#000000" stroke-width="6.20266" stroke-linecap="round" stroke-linejoin="round" stroke-miterlimit="10" fill="#ECECEC" fill-rule="evenodd"/><path d="M1700.91 822.13C1690.42 822.13 1681.91 813.623 1681.91 803.13 1681.91 792.636 1690.42 784.13 1700.91 784.13 1711.4 784.13 1719.91 792.636 1719.91 803.13 1719.91 813.623 1711.4 822.13 1700.91 822.13Z" fill="#BF9000" fill-rule="evenodd"/><path d="M1498.92 794.124C1488.43 794.124 1479.92 785.617 1479.92 775.123 1479.92 764.63 1488.43 756.123 1498.92 756.123 1509.41 756.123 1517.92 764.63 1517.92 775.123 1517.92 785.617 1509.41 794.124 1498.92 794.124Z" fill="#000080" fill-rule="evenodd"/><path d="M1520.91 951.119C1510.42 951.119 1501.91 942.612 1501.91 932.119 1501.91 921.625 1510.42 913.118 1520.91 913.118 1531.41 913.118 1539.91 921.625 1539.91 932.119 1539.91 942.612 1531.41 951.119 1520.91 951.119Z" fill="#FF6600" fill-rule="evenodd"/><path d="M1731.82 1035.53C1722.32 1039.96 1711.03 1035.88 1706.6 1026.4 1702.18 1016.93 1706.29 1005.65 1715.79 1001.21 1725.3 996.773 1736.59 1000.86 1741.01 1010.33 1745.44 1019.81 1741.32 1031.09 1731.82 1035.53Z" fill="#BF9000" fill-rule="evenodd"/><path d="M1536.51 1087.23C1527.01 1091.67 1515.72 1087.59 1511.3 1078.11 1506.87 1068.63 1510.99 1057.36 1520.49 1052.92 1529.99 1048.48 1541.28 1052.56 1545.71 1062.04 1550.13 1071.52 1546.02 1082.8 1536.51 1087.23Z" fill="#000080" fill-rule="evenodd"/><path d="M1622.5 1220.62C1613 1225.05 1601.71 1220.97 1597.28 1211.49 1592.86 1202.02 1596.98 1190.74 1606.48 1186.3 1615.98 1181.86 1627.27 1185.95 1631.7 1195.42 1636.12 1204.9 1632.01 1216.18 1622.5 1220.62Z" fill="#FF6600" fill-rule="evenodd"/><path d="M1619.47 1027.56 1618.47 1026.56" stroke="#000000" stroke-width="2.67674" stroke-miterlimit="8" fill="none" fill-rule="evenodd"/><path d="M1499.5 777.4 1531.5 1070.4" stroke="#000080" stroke-width="2.67674" stroke-miterlimit="8" fill="none" fill-rule="evenodd"/><path d="M-0.00306425 210.364 23.997 0.363493" stroke="#BF9000" stroke-width="2.68107" stroke-miterlimit="8" fill="none" fill-rule="evenodd" transform="matrix(1 0 0 -1 1698.5 1011.5)"/><path d="M1524.49 937.049 1611.49 1210.05" stroke="#FF6600" stroke-width="2.67674" stroke-miterlimit="8" fill="none" fill-rule="evenodd"/><text font-family="Calibri,Calibri_MSFontService,sans-serif" font-style="italic" font-weight="400" font-size="73" transform="matrix(1 0 0 1 1066.39 528)">Neural<tspan font-size="73" x="-14.5979" y="63">Feature </tspan><tspan font-size="73" x="-51.2646" y="128">Extraction</tspan><tspan font-size="73" x="394.137" y="31">GNN</tspan><tspan font-size="73" x="535.647" y="31">-</tspan>based<tspan font-size="73" x="437.977" y="95">Matcher</tspan><tspan font-size="73" x="828.61" y="-17">Projecting</tspan><tspan font-size="73" x="875.864" y="47">2D</tspan><tspan font-size="73" x="962.375" y="47">→</tspan><tspan font-size="73" x="1032.84" y="47">3D </tspan><tspan font-style="normal" font-size="73" x="926.006" y="111">(P</tspan><tspan font-style="normal" font-size="49" x="986.162" y="128">a</tspan><tspan font-style="normal" font-size="73" x="1009.65" y="111">)</tspan><tspan font-size="73" x="1290.4" y="18">Perspective</tspan><tspan font-size="73" x="1629" y="18">-</tspan>n-Point</text><path d="M3024.5 977 3273 798.5 3521.5 977 3273 1155.5Z" stroke="#000000" stroke-width="9.16667" stroke-linejoin="round" stroke-miterlimit="10" fill="#D1C6E0" fill-rule="evenodd"/><text font-family="CMU Serif,CMU Serif_MSFontService,sans-serif" font-weight="700" font-size="73" transform="matrix(1 0 0 1 3107.77 978)">Switch<tspan font-weight="500" font-size="73" x="272.708" y="0">to </tspan><tspan font-weight="500" font-size="73" x="36.6668" y="64">explore?</tspan><tspan font-family="Calibri,Calibri_MSFontService,sans-serif" font-weight="400" font-size="55" x="207.808" y="282">Yes</tspan><tspan font-family="Calibri,Calibri_MSFontService,sans-serif" font-weight="400" font-size="55" x="434.911" y="-35">No</tspan><tspan font-weight="500" font-size="73" x="-61.1863" y="426">Goal Discovery </tspan><tspan font-weight="500" font-size="73" x="67.147" y="490">module</tspan></text><path d="M2429.58 777.838 2612.65 989.295 2610.36 991.282 2427.29 779.825ZM2432.82 810.403 2426.47 776.555 2459.06 787.688C2459.85 787.959 2460.27 788.821 2460 789.614 2459.73 790.407 2458.87 790.831 2458.07 790.56L2427.95 780.269 2429.93 778.553 2435.8 809.843C2435.96 810.667 2435.41 811.46 2434.59 811.615 2433.77 811.769 2432.97 811.227 2432.82 810.403ZM2607.12 958.718 2613.48 992.566 2580.89 981.434C2580.09 981.163 2579.67 980.3 2579.94 979.507 2580.21 978.714 2581.07 978.291 2581.87 978.562L2611.99 988.853 2610.01 990.569 2604.14 959.278C2603.99 958.454 2604.53 957.661 2605.35 957.507 2606.18 957.352 2606.97 957.895 2607.12 958.718Z" fill="#000080"/><path d="M2663.3 1060.42 2473.43 859.786 2475.64 857.699 2665.51 1058.33ZM2658.63 1028.03 2666.48 1061.57 2633.43 1051.89C2632.62 1051.65 2632.16 1050.81 2632.4 1050 2632.63 1049.2 2633.47 1048.74 2634.28 1048.97L2664.83 1057.92 2662.93 1059.72 2655.68 1028.72C2655.49 1027.91 2655.99 1027.09 2656.81 1026.9 2657.62 1026.71 2658.44 1027.22 2658.63 1028.03ZM2480.31 890.089 2472.47 856.556 2505.52 866.234C2506.32 866.47 2506.78 867.313 2506.55 868.117 2506.31 868.922 2505.47 869.383 2504.66 869.147L2474.11 860.2 2476.01 858.398 2483.26 889.398C2483.46 890.214 2482.95 891.03 2482.13 891.221 2481.32 891.412 2480.5 890.905 2480.31 890.089Z" fill="#FF6600"/><path d="M2788 890 2788 1053.67 2572 1112 2572 948.326Z" stroke="#000000" stroke-width="6.30768" stroke-linecap="round" stroke-linejoin="round" stroke-miterlimit="10" fill="#FBDDDD" fill-rule="evenodd"/><path d="M2746.75 931.554C2740.54 936.219 2733.15 935.499 2730.25 929.946 2727.35 924.393 2730.04 916.11 2736.25 911.446 2742.46 906.781 2749.85 907.501 2752.75 913.054 2755.65 918.607 2752.96 926.89 2746.75 931.554Z" fill="#BF9000" fill-rule="evenodd"/><path d="M2617.41 1001.55C2611.01 1006.22 2603.4 1005.5 2600.41 999.946 2597.42 994.393 2600.19 986.11 2606.59 981.446 2612.99 976.781 2620.6 977.501 2623.59 983.054 2626.58 988.607 2623.81 996.89 2617.41 1001.55Z" fill="#000080" fill-rule="evenodd"/><path d="M2674.41 1074.78C2668.01 1079.32 2660.4 1078.62 2657.41 1073.22 2654.42 1067.82 2657.19 1059.76 2663.59 1055.22 2669.99 1050.68 2677.6 1051.38 2680.59 1056.78 2683.58 1062.19 2680.81 1070.24 2674.41 1074.78Z" fill="#FF6600" fill-rule="evenodd"/><path d="M2417.47 781.776 2392.47 929.851 2389.47 929.346 2414.47 781.271ZM2394.41 804.997 2416.47 778.554 2428.63 810.775C2428.93 811.559 2428.53 812.434 2427.75 812.73 2426.96 813.026 2426.09 812.63 2425.79 811.846L2414.55 782.059 2417.14 782.496 2396.74 806.942C2396.2 807.585 2395.25 807.672 2394.6 807.135 2393.96 806.598 2393.87 805.641 2394.41 804.997ZM2412.53 906.125 2390.47 932.568 2378.31 900.347C2378.02 899.563 2378.41 898.687 2379.2 898.391 2379.98 898.095 2380.85 898.491 2381.15 899.275L2392.39 929.062 2389.81 928.626 2410.2 904.18C2410.74 903.537 2411.7 903.45 2412.34 903.987 2412.98 904.524 2413.07 905.481 2412.53 906.125Z" fill="#000080"/><path d="M2524.73 979.918 2598.85 907.669 2601.25 910.131 2527.12 982.38ZM2557.23 975.11 2523.48 983.53 2532.77 950.008C2533.02 949.093 2533.97 948.557 2534.88 948.811 2535.79 949.064 2536.33 950.011 2536.08 950.926L2527.58 981.608 2525.51 979.482 2556.4 971.775C2557.32 971.545 2558.25 972.105 2558.48 973.026 2558.71 973.947 2558.15 974.88 2557.23 975.11ZM2568.75 914.939 2602.49 906.519 2593.21 940.041C2592.96 940.956 2592.01 941.492 2591.1 941.238 2590.18 940.985 2589.65 940.038 2589.9 939.123L2598.39 908.441 2600.47 910.567 2569.58 918.274C2568.66 918.504 2567.72 917.944 2567.49 917.023 2567.26 916.102 2567.82 915.169 2568.75 914.939Z" fill="#BF9000"/><path d="M2403.02 1033.22 2464.05 857.899 2466.92 858.897 2405.89 1034.22ZM2429.64 1014.18 2403.47 1036.57 2396.86 1002.77C2396.7 1001.95 2397.23 1001.15 2398.06 1000.99 2398.88 1000.83 2399.68 1001.36 2399.84 1002.19L2405.95 1033.43 2403.47 1032.57 2427.66 1011.87C2428.3 1011.33 2429.26 1011.4 2429.8 1012.04 2430.35 1012.67 2430.27 1013.63 2429.64 1014.18ZM2440.31 877.944 2466.47 855.554 2473.08 889.352C2473.24 890.175 2472.71 890.972 2471.88 891.133 2471.06 891.294 2470.26 890.757 2470.1 889.935L2463.99 858.69 2466.47 859.552 2442.28 880.25C2441.64 880.795 2440.68 880.721 2440.14 880.084 2439.59 879.447 2439.67 878.489 2440.31 877.944Z" fill="#FF6600"/><path d="M2354.97 1061.06 2357.05 1170.06 2447.97 1085.99" stroke="#000000" stroke-width="4.04669" stroke-miterlimit="8" fill="none" fill-rule="evenodd"/><path d="M2562 948.326 2562 1112 2369 1053.67 2369 890Z" stroke="#000000" stroke-width="5.98324" stroke-linecap="round" stroke-linejoin="round" stroke-miterlimit="10" fill="#ECECEC" fill-rule="evenodd"/><path d="M2524.5 995.619C2517.6 993.752 2512 986.588 2512 979.619 2512 972.65 2517.6 968.514 2524.5 970.381 2531.4 972.248 2537 979.412 2537 986.381 2537 993.35 2531.4 997.486 2524.5 995.619Z" fill="#BF9000" fill-rule="evenodd"/><path d="M2390.47 932.561 2357.47 1170.56" stroke="#000080" stroke-width="3.03511" stroke-miterlimit="8" fill="none" fill-rule="evenodd"/><path d="M2390.5 940.619C2383.6 938.752 2378 931.588 2378 924.619 2378 917.65 2383.6 913.514 2390.5 915.381 2397.4 917.248 2403 924.412 2403 931.381 2403 938.35 2397.4 942.486 2390.5 940.619Z" fill="#000080" fill-rule="evenodd"/><path d="M2357.47 1170.56 2523.47 983.561" stroke="#BF9000" stroke-width="3.03511" stroke-miterlimit="8" fill="none" fill-rule="evenodd"/><path d="M2357.47 1170.56 2403.47 1036.56" stroke="#FF6600" stroke-width="3.03511" stroke-miterlimit="8" fill="none" fill-rule="evenodd"/><path d="M2404.5 1048.62C2397.6 1046.75 2392 1039.59 2392 1032.62 2392 1025.65 2397.6 1021.51 2404.5 1023.38 2411.4 1025.25 2417 1032.41 2417 1039.38 2417 1046.35 2411.4 1050.49 2404.5 1048.62Z" fill="#FF6600" fill-rule="evenodd"/><path d="M2356.97 1170.06 2447.97 1156.06" stroke="#000000" stroke-width="4.04669" stroke-miterlimit="8" fill="none" fill-rule="evenodd"/><path d="M2356.97 1170.06 2354.97 1131.06" stroke="#000000" stroke-width="4.04669" stroke-miterlimit="8" fill="none" fill-rule="evenodd"/><path d="M2354.97 1061.06 2447.97 1086.02 2447.97 1156.06 2354.97 1131.1Z" stroke="#000000" stroke-width="4.04669" stroke-miterlimit="8" fill="none" fill-rule="evenodd"/><path d="M2779.4 1185.55 2642.4 971.549" stroke="#BF9000" stroke-width="3.03511" stroke-miterlimit="8" fill="none" fill-rule="evenodd"/><path d="M2613.47 992.561 2779.47 1185.56" stroke="#000080" stroke-width="3.03511" stroke-miterlimit="8" fill="none" fill-rule="evenodd"/><path d="M2779.47 1185.56 2671.47 1067.56" stroke="#FF6600" stroke-width="3.03511" stroke-miterlimit="8" fill="none" fill-rule="evenodd"/><path d="M2689.97 1089.92 2782.97 1061.06 2782.97 1131.19 2689.97 1160.06Z" stroke="#000000" stroke-width="4.04669" stroke-miterlimit="8" fill="none" fill-rule="evenodd"/><path d="M2689.97 1160.06 2778.97 1185.06" stroke="#000000" stroke-width="4.04669" stroke-miterlimit="8" fill="none" fill-rule="evenodd"/><path d="M2782.97 1131.06 2778.97 1185.06" stroke="#000000" stroke-width="4.04669" stroke-miterlimit="8" fill="none" fill-rule="evenodd"/><path d="M2782.97 1061.06 2778.97 1185.06" stroke="#000000" stroke-width="4.04669" stroke-miterlimit="8" fill="none" fill-rule="evenodd"/><path d="M2689.97 1090.06 2778.97 1185.06" stroke="#000000" stroke-width="4.04669" stroke-miterlimit="8" fill="none" fill-rule="evenodd"/><path d="M-1.6475 94.4518-1.1475 89.5143-0.0552861 84.3884 1.55275 79.4067 3.67346 74.5029 6.30908 69.7295 9.44793 65.0421 13.0972 60.4865 17.169 56.0277 21.6862 51.6962 26.6398 47.5004 32.0391 43.4942 37.7822 39.5796 43.9083 35.7883 50.4178 32.1837 64.5035 25.3893 79.9889 19.2158 96.657 13.8027 114.435 9.0886 133.277 5.19182 152.985 2.1143 173.505-0.0839887 194.643-1.40292 216.48-1.65614 238.18-0.967882 259.263 0.724272 279.529 3.29493 298.982 6.68175 317.389 10.9507 334.729 15.9742 350.952 21.7561 365.807 28.1723 372.757 31.5821 379.326 35.1803 385.522 38.9717 391.325 42.8175 396.721 46.8769 401.717 50.9853 406.305 55.3129 410.439 59.6965 414.083 64.1647 417.293 68.8413 420.049 73.574C420.129 73.712 420.189 73.8606 420.229 74.0154L422.046 81.1872 418.713 82.0314 416.896 74.8596 417.076 75.301 414.457 70.7837 411.417 66.3353 407.936 62.0535 403.945 57.8121 399.533 53.6397 394.654 49.6231 389.425 45.6825 383.728 41.9033 377.674 38.1947 371.243 34.6679 364.443 31.3277 349.798 24.9939 333.772 19.2758 316.611 14.2993 298.393 10.0683 279.096 6.70507 258.987 4.15073 238.07 2.46788 216.52 1.78114 194.857 2.02792 173.87 3.33399 153.515 5.5107 133.973 8.55818 115.315 12.4114 97.718 17.0723 81.2611 22.4092 65.9964 28.4857 52.0822 35.1913 45.7167 38.7117 39.7178 42.4204 34.0859 46.2558 28.8602 50.1246 24.0638 54.1788 19.706 58.3473 15.7778 62.6385 12.3021 66.9579 9.31592 71.3955 6.82654 75.872 4.82225 80.4683 3.30529 85.1116 2.2725 89.8607 1.7725 94.7981ZM433.377 75.1963 423.5 104.312 406.133 78.941Z" fill="#3F6EC3" transform="matrix(0.998625 0.0524185 0.0524185 -0.998625 2349.58 1271.93)"/><text font-family="CMU Serif,CMU Serif_MSFontService,sans-serif" font-weight="500" font-size="73" transform="matrix(1 0 0 1 2446.56 1351)">Estimate<tspan font-size="73" x="-111.994" y="64">rotation(R) and</tspan><tspan font-size="73" x="-73.0354" y="128">translation(t)</tspan><tspan font-size="73" x="1253.26" y="-395">Local</tspan><tspan font-size="73" x="1240.08" y="-331">Policy</tspan></text><path d="M3922.5 964.063 3995.17 964.063 3995.17 970.938 3922.5 970.938ZM3990.59 953.75 4018.09 967.501 3990.59 981.25Z"/><path d="M1362.5 975.063 1415.18 975.063 1415.18 981.938 1362.5 981.938ZM1410.6 964.75 1438.1 978.501 1410.6 992.25Z"/><path d="M2802.5 973.063 2979.18 973.063 2979.18 979.938 2802.5 979.938ZM2974.6 962.75 3002.1 976.5 2974.6 990.25Z"/><path d="M1819.5 978.062 1872.18 978.063 1872.18 984.938 1819.5 984.937ZM1867.6 967.75 1895.1 981.5 1867.6 995.25Z"/><path d="M2248.5 974.063 2301.18 974.063 2301.18 980.938 2248.5 980.938ZM2296.6 963.75 2324.1 977.5 2296.6 991.25Z"/><text font-family="CMU Serif,CMU Serif_MSFontService,sans-serif" font-weight="500" font-size="73" transform="matrix(1 0 0 1 413.109 837)">Agent Image<tspan font-size="73" x="151.823" y="64">(</tspan><tspan font-size="73" x="180.469" y="64">I</tspan><tspan font-size="49" x="206.823" y="81">a</tspan><tspan font-size="73" x="231.458" y="64">)</tspan><tspan font-size="73" x="20.911" y="266">Goal Image</tspan><tspan font-size="73" x="151.834" y="330">(I</tspan><tspan font-size="49" x="206.834" y="347">g</tspan><tspan font-size="73" x="231.469" y="330">)</tspan><tspan font-size="73" x="81.6517" y="462">Camera </tspan><tspan font-size="73" x="-11.4587" y="526">Intrinsics</tspan><tspan font-size="73" x="309.375" y="526">(K)</tspan><tspan font-size="73" x="-69.896" y="652">Depth mask (D</tspan><tspan font-size="49" x="428.542" y="669">a</tspan><tspan font-size="73" x="453.177" y="652">)</tspan></text><path d="M955.5 1465.5 2066.76 1465.5" stroke="#000000" stroke-width="6.875" stroke-linejoin="round" stroke-miterlimit="10" fill="none" fill-rule="evenodd"/><path d="M3.4375-5.20432e-06 3.43783 215.456-3.43717 215.456-3.4375 5.20432e-06ZM13.7503 210.873 0.000360892 238.373-13.7497 210.873Z" transform="matrix(1 0 0 -1 2066.5 1464.87)"/><path d="M0.00481606-3.4375 86.0484-3.31695 86.0388 3.55805-0.00481606 3.4375ZM81.4796-13.6359 108.96 0.152657 81.441 13.8641Z" transform="matrix(1 0 0 -1 3521.5 976.653)"/><path d="M838.5 1313.5 2066.42 1313.5" stroke="#000000" stroke-width="6.875" stroke-linejoin="round" stroke-miterlimit="10" fill="none" fill-rule="evenodd"/><path d="M832.5 1120.06 974.583 1120.06 974.583 1126.94 832.5 1126.94ZM970 1109.75 997.5 1123.5 970 1137.25Z"/><path d="M149.731 79.7666 18.6301 13.4539 21.7332 7.31904 152.834 73.6318ZM153.399 62.3608 171.732 87.0429 140.986 86.9002ZM18.0653 24.7249-0.267882 0.0427707 30.4777 0.185477Z" fill="#FF0000" transform="matrix(-1 0 0 1 2785.5 665.5)"/><text font-family="CMU Concrete,CMU Concrete_MSFontService,sans-serif" font-weight="500" font-size="73" transform="matrix(1 0 0 1 4031.14 896)">move forward<tspan font-size="73" x="60.4541" y="64">turn right</tspan><tspan font-size="73" x="86.2351" y="128">turn left </tspan><tspan font-size="73" x="152.969" y="193">stop</tspan></text><path d="M0 0 33 0.000360892" stroke="#000000" stroke-width="6.875" stroke-linejoin="round" stroke-miterlimit="10" fill="none" fill-rule="evenodd" transform="matrix(-1 0 0 1 4051.5 820.5)"/><path d="M0 0 0.000360892 297.139" stroke="#000000" stroke-width="6.875" stroke-linejoin="round" stroke-miterlimit="10" fill="none" fill-rule="evenodd" transform="matrix(1 0 0 -1 4020.5 1115.64)"/><path d="M0 0 33.2292 0.000360892" stroke="#000000" stroke-width="6.875" stroke-linejoin="round" stroke-miterlimit="10" fill="none" fill-rule="evenodd" transform="matrix(-1 0 0 1 4053.73 1115.5)"/><text font-family="CMU Serif,CMU Serif_MSFontService,sans-serif" font-weight="500" font-size="73" transform="matrix(1 0 0 1 1074.92 888)">X<tspan font-size="49" x="55" y="17">a</tspan><tspan font-size="73" x="79.6354" y="0">, F</tspan><tspan font-size="49" x="171.875" y="17">a</tspan><tspan fill="#474545" font-size="73" x="3.50501" y="-17">^</tspan><tspan font-size="73" x="-3.06506" y="257">X</tspan><tspan font-size="49" x="51.9349" y="274">g</tspan><tspan font-size="73" x="76.5703" y="257">, </tspan><tspan font-size="73" x="121.258" y="257">F</tspan><tspan font-size="49" x="168.81" y="274">g</tspan><tspan fill="#474545" font-size="73" x="1.85388" y="239">^</tspan><tspan font-size="73" x="523.342" y="0">X</tspan><tspan font-size="49" x="578.342" y="17">a</tspan><tspan font-size="73" x="524.079" y="250">X</tspan><tspan font-size="49" x="579.079" y="267">g</tspan><tspan font-size="73" x="1793.62" y="-137">Error(e)</tspan></text><path d="M2652.76 976.195 2631.08 967.564" stroke="#FF0000" stroke-width="3.4375" stroke-linejoin="round" stroke-miterlimit="10" fill="none" fill-rule="evenodd"/><path d="M0 0 16.5 16.5" stroke="#FF0000" stroke-width="3.4375" stroke-linejoin="round" stroke-miterlimit="10" fill="none" fill-rule="evenodd" transform="matrix(-0.918499 0.395422 0.395422 0.918499 2645.99 960.475)"/><rect x="2630.5" y="894.5" width="139" height="95.0002" stroke="#2F528F" stroke-width="6.875" stroke-linejoin="round" stroke-miterlimit="10" stroke-dasharray="6.875 6.875" fill="none"/><path d="M0 0 264.595 75.4889" stroke="#000000" stroke-width="10.3125" stroke-linejoin="round" stroke-miterlimit="10" fill="none" fill-rule="evenodd" transform="matrix(1 0 0 -1 2571 673.489)"/><path d="M862.5 854.063 977.401 854.063 977.401 860.938 862.5 860.938ZM972.818 843.75 1000.32 857.501 972.818 871.25Z"/><rect x="4058.5" y="906.5" width="396" height="58.0001" stroke="#000000" stroke-width="4.58333" stroke-linejoin="round" stroke-miterlimit="10" fill="#7F7F7F" fill-opacity="0.0901961"/><path d="M4459.5 820.5 4490.35 820.5" stroke="#000000" stroke-width="6.875" stroke-linejoin="round" stroke-miterlimit="10" fill="none" fill-rule="evenodd"/><path d="M4488.5 1115.64 4488.5 818.5" stroke="#000000" stroke-width="6.875" stroke-linejoin="round" stroke-miterlimit="10" fill="none" fill-rule="evenodd"/><path d="M4457.5 1115.5 4488.56 1115.5" stroke="#000000" stroke-width="6.875" stroke-linejoin="round" stroke-miterlimit="10" fill="none" fill-rule="evenodd"/></g></svg>